<?xml version="1.0" encoding="utf-8"?>
<!-- Generator: Adobe Illustrator 27.6.1, SVG Export Plug-In . SVG Version: 6.00 Build 0)  -->
<svg version="1.1" id="Ebene_1" xmlns="http://www.w3.org/2000/svg" xmlns:xlink="http://www.w3.org/1999/xlink" x="0px" y="0px"
	 viewBox="0 0 220.4 44.8" style="enable-background:new 0 0 220.4 44.8;" xml:space="preserve">
<style type="text/css">
	.st0{fill:#A50343;}
</style>
<g>
	<g>
		<path d="M61.3,34.7c-2-1.1-3.6-2.7-4.7-4.8c-1.1-2.1-1.6-4.4-1.6-7.2s0.6-5.2,1.7-7.3c1.1-2.2,2.7-3.9,4.9-5.1
			C63.6,9,66.1,8.4,69,8.4c1.6,0,3.2,0.1,4.8,0.4c1.5,0.2,2.7,0.6,3.5,1v6.8H76c-0.2-1.5-0.6-2.8-1.1-3.7c-0.5-0.9-1.3-1.6-2.2-2
			c-1-0.5-2.3-0.7-3.9-0.7c-2,0-3.8,0.5-5.4,1.5c-1.6,1-2.8,2.4-3.6,4.2c-0.9,1.8-1.3,3.8-1.3,6c0,2.4,0.3,4.5,1,6.3
			c0.6,1.8,1.7,3.3,3.2,4.4c1.5,1.1,3.5,1.6,6,1.6c1.2,0,2.4-0.2,3.4-0.6c1.1-0.4,1.9-0.9,2.5-1.6v-4.9c0-0.7-0.4-1.3-1.2-1.8
			c-0.8-0.5-1.9-0.7-3.5-0.7v-1.2h5.2h2.1h3.4v1.2c-1,0-1.7,0.2-2.2,0.7s-0.8,1.1-0.8,1.8v5.5c-1.2,1.1-2.7,2-4.3,2.7
			c-1.7,0.7-3.3,1-5.1,1C65.6,36.3,63.3,35.8,61.3,34.7z"/>
		<path d="M103.7,10.8c-0.7-0.5-1.7-0.7-3-0.7V8.9h4.4h0.7h3.7v1.2c-1.1,0-1.9,0.2-2.5,0.7c-0.6,0.5-0.9,1.1-0.9,1.8v23.3h-1.6
			L88,12.4v19.7c0,0.7,0.3,1.3,1,1.8c0.7,0.5,1.7,0.7,3,0.7v1.2h-4.4h-0.7h-3.7v-1.2c1.1,0,1.9-0.2,2.5-0.7c0.6-0.5,0.9-1.1,0.9-1.8
			V11.1c-0.4-0.3-0.9-0.5-1.5-0.6c-0.5-0.2-1.2-0.3-1.8-0.4V8.9h6.4l15.1,21.5h0.4l-0.3,2V12.6C104.7,11.9,104.4,11.3,103.7,10.8z"
			/>
		<path d="M120.3,35.9v-1.2c1.1,0,1.9-0.2,2.5-0.7c0.6-0.5,0.9-1.1,0.9-1.8V12.6c0-0.7-0.3-1.3-0.9-1.8c-0.6-0.5-1.4-0.7-2.5-0.7
			V8.9h3.7h2.1h3.7v1.2c-1.1,0-1.9,0.2-2.5,0.7c-0.6,0.5-0.9,1.1-0.9,1.8v19.6c0,0.7,0.3,1.3,0.9,1.8c0.6,0.5,1.4,0.7,2.5,0.7v1.2
			h-3.7H124H120.3z"/>
		<path d="M133,35.9v-1.1c0.6,0,1.2-0.1,1.8-0.4c0.6-0.3,0.9-0.8,0.9-1.6V22.5c0-1.1-0.2-1.8-0.6-2.2c-0.4-0.4-1.1-0.6-2.1-0.6v-1.1
			l4-1.8l1.3,3.8h0.2c0.6-1.2,1.5-2.1,2.6-2.8c1.1-0.7,2.3-1,3.7-1c1.7,0,3.1,0.5,4.1,1.5c1,1,1.5,2.4,1.5,4.3v10.2
			c0,0.8,0.3,1.4,0.9,1.6c0.6,0.3,1.2,0.4,1.8,0.4v1.1h-2.7h-2.3H145v-1.1c0.6,0,1.2-0.1,1.8-0.4c0.6-0.3,0.9-0.8,0.9-1.6v-9.3
			c0-3-1.2-4.4-3.6-4.4c-1.2,0-2.2,0.3-3.2,1c-1,0.6-1.8,1.6-2.4,2.9v9.9c0,0.8,0.3,1.4,0.9,1.6c0.6,0.3,1.2,0.4,1.8,0.4v1.1h-2.7
			h-2.3H133z"/>
		<path d="M155.4,18.6c-0.3-0.2-0.7-0.3-1.2-0.3v-1.1h7.7v1.1c-1.1,0-1.8,0.2-2.2,0.7c-0.3,0.5-0.3,1.2,0.1,2.2l5,12.3l-1.3,0.5
			l5-12.8c0.3-0.8,0.4-1.4,0.3-1.8c-0.1-0.4-0.3-0.7-0.7-0.8c-0.4-0.1-0.9-0.2-1.7-0.3v-1.1h6.6v1.1c-0.6,0.1-1.1,0.4-1.5,0.9
			c-0.4,0.5-0.8,1.2-1.2,2.2l-6.1,14.5c-0.4,0.2-0.9,0.4-1.4,0.4l-6.8-16.5C155.9,19.2,155.7,18.8,155.4,18.6z"/>
		<path d="M178.6,35.1c-1.3-0.8-2.3-1.9-3.1-3.4c-0.8-1.5-1.1-3.2-1.1-5.1c0-2,0.4-3.7,1.2-5.2c0.8-1.5,1.9-2.6,3.2-3.5
			c1.3-0.8,2.8-1.2,4.3-1.2c1.4,0,2.7,0.3,3.8,1c1.1,0.6,2,1.6,2.7,2.9c0.6,1.3,0.9,2.9,0.8,4.8h-13.8V24H188l-0.8,0.5
			c0.1-1.7-0.2-3.1-1.1-4.3c-0.8-1.1-2-1.7-3.6-1.7c-1.6,0-2.9,0.6-3.9,1.9c-1,1.3-1.5,3-1.5,5.4c0,2.5,0.6,4.5,1.7,5.9
			c1.2,1.5,2.8,2.2,4.8,2.2c1.3,0,2.5-0.3,3.5-0.9c1-0.6,1.8-1.5,2.3-2.5l0.9,0.6c-0.8,1.7-1.9,3-3.2,3.9c-1.3,0.9-2.7,1.3-4.3,1.3
			C181.3,36.3,179.9,35.9,178.6,35.1z"/>
		<path d="M196,35.8c-1.1-0.4-2-0.8-2.7-1.2l0.4-4.8h1.1c0.1,1.7,0.5,3,1.4,3.7c0.9,0.8,2.1,1.2,3.7,1.2c1.3,0,2.3-0.3,3-0.9
			c0.7-0.6,1.1-1.4,1.1-2.3c0-0.8-0.2-1.5-0.6-2c-0.4-0.5-1-0.9-1.6-1.2c-0.7-0.3-1.5-0.6-2.7-1c-1.2-0.4-2.2-0.8-3-1.2
			c-0.8-0.4-1.4-0.9-1.9-1.6c-0.5-0.7-0.8-1.6-0.8-2.7c0-0.9,0.3-1.8,0.8-2.6c0.5-0.8,1.3-1.4,2.2-1.8c0.9-0.4,2-0.7,3.1-0.7
			c1.1,0,2.1,0.1,3,0.4s1.8,0.6,2.7,1.1l-0.2,4.4H204c-0.1-1.5-0.5-2.6-1.3-3.3s-1.9-1.1-3.2-1.1c-1.1,0-2.1,0.3-2.8,0.8
			s-1.1,1.2-1.1,2c0,0.6,0.2,1.1,0.6,1.5c0.4,0.4,0.9,0.7,1.4,1c0.6,0.3,1.4,0.6,2.4,0.9c1.3,0.4,2.4,0.9,3.3,1.3
			c0.8,0.4,1.6,1,2.2,1.8c0.6,0.8,0.9,1.8,0.9,3c0,1-0.3,2-0.8,2.9s-1.3,1.6-2.3,2.1c-1,0.5-2.2,0.8-3.6,0.8S197.1,36.2,196,35.8z"
			/>
		<path d="M213.5,18.7v11.4c0,1.4,0.2,2.4,0.5,3c0.4,0.6,1,0.9,1.9,0.9c0.7,0,1.3-0.2,1.9-0.6c0.6-0.4,1.2-0.9,1.7-1.5l0.7,0.7
			c-0.6,1.1-1.4,2-2.4,2.7c-1,0.7-2,1.1-3,1.1c-1.4,0-2.4-0.5-3.1-1.4c-0.7-0.9-1-2.4-1-4.3v-12h-2.7v-1.1c1.2-0.3,2.2-0.9,2.9-1.9
			c0.7-1,1.2-2.2,1.4-3.6h1.1v5.1h6.2v1.5H213.5z"/>
	</g>
	<path class="st0" d="M22.4,0C10,0,0,10,0,22.4s10,22.4,22.4,22.4c2.6,0,5.1-0.5,7.5-1.3v-25H14.8v9.5h5.4v6.9
		c-6.1-1.1-10.5-6.3-10.5-12.4c0-7,5.7-12.7,12.7-12.7c7,0,12.7,5.7,12.7,12.7l0,18.5c5.9-4,9.8-10.8,9.8-18.5
		C44.8,10,34.8,0,22.4,0z"/>
</g>
</svg>
