<svg width="28" height="41" viewBox="0 0 28 41" fill="none" xmlns="http://www.w3.org/2000/svg">
<path d="M20.7285 16.9618V7.89467C20.7285 6.05648 20.0107 4.32594 18.7069 3.02158C17.4023 1.71775 15.672 1 13.8339 1C10.0322 1 6.93918 4.09303 6.93918 7.89467V16.9611C3.64178 17.0997 1 19.8179 1 23.1489V32.8487C1.00029 36.2685 3.78221 39.0504 7.20168 39.0504H20.4665C23.8859 39.0504 26.6679 36.2685 26.6679 32.849V23.1492C26.6676 19.8182 24.0261 17.1 20.7287 16.9614L20.7285 16.9618ZM13.8339 2.69143C15.2202 2.69143 16.5261 3.23348 17.5108 4.2182C18.4949 5.20291 19.0369 6.50848 19.0369 7.89513V16.9487H8.63046V7.89513C8.63046 5.02564 10.9653 2.69143 13.8342 2.69143H13.8339ZM24.9764 32.8494C24.9764 35.3361 22.9533 37.3597 20.4664 37.3597H7.20161C4.71437 37.3597 2.69128 35.3363 2.69128 32.8494V23.1496C2.69128 20.6629 4.71437 18.6398 7.20161 18.6398H20.4664C22.9536 18.6398 24.9767 20.6632 24.9767 23.1496V32.8494H24.9764Z" fill="#046AF3" stroke="#046AF3" stroke-width="2"/>
<path d="M13.8341 23.9531C12.2478 23.9531 10.957 25.244 10.957 26.8302C10.957 28.1222 11.8135 29.2178 12.9883 29.58V32.5598C12.9883 33.0266 13.3673 33.4053 13.8338 33.4053C14.3007 33.4053 14.6793 33.0263 14.6793 32.5598V29.58C15.8542 29.2181 16.7106 28.1222 16.7106 26.8302C16.7112 25.2439 15.4204 23.9531 13.8341 23.9531H13.8341ZM13.8341 28.0161C13.18 28.0161 12.6483 27.4843 12.6483 26.8302C12.6483 26.1761 13.18 25.6444 13.8341 25.6444C14.4882 25.6444 15.02 26.1761 15.02 26.8302C15.02 27.4841 14.4882 28.0161 13.8341 28.0161Z" fill="#046AF3"/>
</svg>
