<svg width="47" height="35" viewBox="0 0 47 35" fill="none" xmlns="http://www.w3.org/2000/svg">
<path d="M45.2212 32.0819H43.0728V27.385C43.0728 25.5363 42.3733 23.8371 41.0743 22.5382C39.7754 21.2392 38.0761 20.5397 36.2276 20.5397C35.2283 20.5397 34.2291 20.7394 33.2796 21.1894C32.9297 21.3392 32.7798 21.7889 32.9297 22.1388C33.0795 22.4888 33.5292 22.6386 33.8791 22.4888C34.5786 22.1388 35.3782 21.9889 36.1778 21.9889C39.1257 21.9889 41.5742 24.3873 41.5742 27.3854V32.0823L32.1795 32.082V25.6862C32.1795 23.3876 31.2803 21.1894 29.6313 19.5404C27.9824 17.8915 25.7838 16.9922 23.4855 16.9922C22.3364 16.9922 21.1869 17.2421 20.1377 17.6419C19.0883 18.0915 18.1392 18.6913 17.3397 19.5407C15.6908 21.1896 14.7915 23.3882 14.7915 25.6865V32.0324L5.34687 32.0317V27.3347C5.34687 24.3868 7.74518 21.9383 10.7433 21.9383C11.5428 21.9383 12.3424 22.0882 13.0419 22.4381C13.3919 22.588 13.8415 22.4381 13.9914 22.0882C14.1413 21.7382 13.9914 21.2886 13.6414 21.1387C12.7422 20.6891 11.7426 20.489 10.6935 20.489C8.84481 20.489 7.14568 21.1886 5.84672 22.4875C4.54767 23.7866 3.84823 25.4857 3.84823 27.3343V32.0313L1.74936 32.0316C1.34958 32.0316 1 32.3314 1 32.781C1 33.2306 1.29975 33.5303 1.74936 33.5303H45.2704C45.6702 33.5303 46.0198 33.2306 46.0198 32.781C46.0198 32.3317 45.6708 32.0819 45.2212 32.0819ZM30.7309 32.0819H16.2405V25.6862C16.2405 21.6887 19.4882 18.4411 23.4856 18.4411C27.483 18.4411 30.7307 21.6887 30.7307 25.6862L30.7309 32.0819Z" fill="#0461F3" stroke="#0461F3" stroke-width="1.5"/>
<path d="M23.4866 13.0923C26.8344 13.0923 29.5327 10.3943 29.5327 7.04615C29.5327 3.69838 26.8347 1 23.4866 1C20.1388 1 17.4404 3.69803 17.4404 7.04615C17.4404 10.3942 20.1388 13.0923 23.4866 13.0923ZM23.4866 2.39943C26.0348 2.39943 28.0835 4.44815 28.0835 6.99637C28.0835 9.54458 26.0348 11.5933 23.4866 11.5933C20.9384 11.5933 18.8896 9.54458 18.8896 6.99637C18.8896 4.49803 20.9384 2.39943 23.4866 2.39943Z" fill="#0461F3" stroke="#0461F3" stroke-width="1.5"/>
<path d="M10.7442 17.3889C13.3925 17.3889 15.591 15.2405 15.591 12.5421C15.591 9.84406 13.4426 7.69531 10.7442 7.69531C8.096 7.69531 5.89746 9.8437 5.89746 12.5421C5.89746 15.2405 8.04621 17.3889 10.7442 17.3889ZM10.7442 9.14453C12.5929 9.14453 14.1418 10.6436 14.1418 12.5421C14.1418 14.4409 12.6427 15.9396 10.7442 15.9396C8.84541 15.9396 7.34667 14.4406 7.34667 12.5421C7.34667 10.6436 8.84577 9.14453 10.7442 9.14453Z" fill="#0461F3" stroke="#0461F3" stroke-width="1.5"/>
<path d="M36.2276 17.3889C38.8759 17.3889 41.0744 15.2405 41.0744 12.5421C41.0744 9.84406 38.926 7.69531 36.2276 7.69531C33.5794 7.69531 31.3809 9.8437 31.3809 12.5421C31.3809 15.2405 33.5795 17.3889 36.2276 17.3889ZM36.2276 9.14453C38.0763 9.14453 39.6252 10.6436 39.6252 12.5421C39.6252 14.4409 38.1261 15.9396 36.2276 15.9396C34.3288 15.9396 32.8301 14.4406 32.8301 12.5421C32.8297 10.6436 34.3786 9.14453 36.2276 9.14453Z" fill="#0461F3" stroke="#0461F3" stroke-width="1.5"/>
</svg>
