<svg width="43" height="43" viewBox="0 0 43 43" fill="none" xmlns="http://www.w3.org/2000/svg">
<path d="M26.2251 13.4238C27.0583 12.5905 28.4091 12.5905 29.2423 13.4238C30.0752 14.257 30.0752 15.6078 29.2423 16.441L22.8421 22.8412C22.0089 23.6741 20.6581 23.6741 19.8249 22.8412C18.992 22.008 18.992 20.6572 19.8249 19.824L26.2251 13.4238Z" fill="#046AF3"/>
<path fill-rule="evenodd" clip-rule="evenodd" d="M21.3337 0C9.55095 0 0 9.55095 0 21.3337C0 33.1165 9.55095 42.6675 21.3337 42.6675C33.1165 42.6675 42.6675 33.1165 42.6675 21.3337C42.6675 9.55095 33.1165 0 21.3337 0ZM4.2662 21.3337C4.2662 11.9081 11.9075 4.2662 21.3337 4.2662C30.76 4.2662 38.4013 11.9075 38.4013 21.3337C38.4013 30.76 30.76 38.4013 21.3337 38.4013C11.9075 38.4013 4.2662 30.76 4.2662 21.3337Z" fill="#046AF3"/>
</svg>
