<svg width="57" height="63" viewBox="0 0 57 63" fill="none" xmlns="http://www.w3.org/2000/svg">
<path d="M53.8028 41.1573C55.5613 41.1573 56.9999 39.7187 56.9999 37.9602V12.383C56.9999 10.6245 55.5613 9.18587 53.8028 9.18587H11.1742V4.92301C11.1742 2.56797 9.26642 0.660156 6.91137 0.660156H1.5828C0.996661 0.660156 0.51709 1.13973 0.51709 1.72587C0.51709 2.31201 0.996661 2.79159 1.5828 2.79159H6.91137C8.08366 2.79159 9.0428 3.75073 9.0428 4.92301V42.223C9.0428 44.5781 10.9506 46.4859 13.3057 46.4859H55.9342C56.5204 46.4859 56.9999 46.0063 56.9999 45.4202C56.9999 44.834 56.5204 44.3545 55.9342 44.3545H13.3057C12.1334 44.3545 11.1742 43.3953 11.1742 42.223V41.1573H53.8028ZM45.8099 11.3173H53.8028C54.3889 11.3173 54.8685 11.7969 54.8685 12.383V24.1059H45.8099V11.3173ZM45.8099 26.2373H54.8685V37.9602C54.8685 38.5463 54.3889 39.0259 53.8028 39.0259H45.8099V26.2373ZM34.0871 11.3173H43.6785V24.1059H34.0871V11.3173ZM34.0871 26.2373H43.6785V39.0259H34.0871V26.2373ZM22.3642 11.3173H31.9557V24.1059H22.3642V11.3173ZM22.3642 26.2373H31.9557V39.0259H22.3642V26.2373ZM11.1742 11.3173H20.2328V24.1059H11.1742V11.3173ZM11.1742 26.2373H20.2328V39.0259H11.1742V26.2373Z" fill="#9F9F9F"/>
<path d="M8.51053 54.4774C8.51053 58.8897 12.0911 62.4703 16.5034 62.4703C20.9157 62.4703 24.4962 58.8897 24.4962 54.4774C24.4962 50.0651 20.9157 46.4846 16.5034 46.4846C12.0911 46.4846 8.51053 50.0651 8.51053 54.4774ZM16.5034 48.616C19.7324 48.616 22.3648 51.2484 22.3648 54.4774C22.3648 57.7065 19.7324 60.3389 16.5034 60.3389C13.2743 60.3389 10.642 57.7065 10.642 54.4774C10.642 51.2484 13.2743 48.616 16.5034 48.616Z" fill="#9F9F9F"/>
<path d="M40.482 54.4777C40.482 58.89 44.0625 62.4705 48.4748 62.4705C52.8871 62.4705 56.4677 58.89 56.4677 54.4777C56.4677 50.0654 52.8871 46.4848 48.4748 46.4848C44.0625 46.4848 40.482 50.0654 40.482 54.4777ZM48.4748 48.6162C51.7039 48.6162 54.3362 51.2486 54.3362 54.4777C54.3362 57.7067 51.7039 60.3391 48.4748 60.3391C45.2458 60.3391 42.6134 57.7067 42.6134 54.4777C42.6134 51.2486 45.2458 48.6162 48.4748 48.6162Z" fill="#9F9F9F"/>
</svg>
